# xmcd
# 
# Track frame offsets:
#     150
#     28863
#     64775
#     87200
#     106900
#     134675
# 
# Disc length: 2288
# 
# Revision: 0
# Processed by: cddbd v1.5.2PL0 Copyright (c) Steve Scherf et al.
# Submitted via: BonkEnc v1.0.5
# 
DISCID=4e08ee06
DTITLE=Johnny Copeland - Ain't Nothin' But A Party
DYEAR=1987
DGENRE=Blues
TTITLE0=Ain't Nothin' But a Party
TTITLE1=Johnny Gone
TTITLE2=Houston
TTITLE3=Learned My Lessons
TTITLE4=Baby Please Don't Go
TTITLE5=Big Time
EXTD=
EXTT0=
EXTT1=
EXTT2=
EXTT3=
EXTT4=
EXTT5=
PLAYORDER=
